<mxfile host="app.diagrams.net" modified="2024-04-30T16:01:44.142Z" agent="Mozilla/5.0 (Windows NT 10.0; Win64; x64) AppleWebKit/537.36 (KHTML, like Gecko) Chrome/124.0.0.0 Safari/537.36" etag="hI1xUySfaqI7Bf6Msw5z" version="24.3.0" type="device">
  <diagram name="Страница — 1" id="etIVBcolKFq64O5WBKus">
    <mxGraphModel dx="2501" dy="784" grid="1" gridSize="10" guides="1" tooltips="1" connect="1" arrows="1" fold="1" page="1" pageScale="1" pageWidth="827" pageHeight="1169" math="0" shadow="0">
      <root>
        <mxCell id="0" />
        <mxCell id="1" parent="0" />
        <mxCell id="QqEz2ouQ6XEhS95nmp8b-2" value="" style="rounded=0;whiteSpace=wrap;html=1;" vertex="1" parent="1">
          <mxGeometry x="134" y="220" width="376" height="340" as="geometry" />
        </mxCell>
        <mxCell id="QqEz2ouQ6XEhS95nmp8b-3" value="&lt;font style=&quot;font-size: 18px;&quot;&gt;statcounter.com&lt;/font&gt;" style="text;html=1;align=center;verticalAlign=middle;whiteSpace=wrap;rounded=0;" vertex="1" parent="1">
          <mxGeometry x="269" y="220" width="106" height="30" as="geometry" />
        </mxCell>
        <mxCell id="QqEz2ouQ6XEhS95nmp8b-5" value="Зарегистрированный пользователь" style="shape=umlActor;verticalLabelPosition=bottom;verticalAlign=top;html=1;" vertex="1" parent="1">
          <mxGeometry x="70" y="500" width="30" height="60" as="geometry" />
        </mxCell>
        <mxCell id="QqEz2ouQ6XEhS95nmp8b-8" value="Пользователь" style="shape=umlActor;verticalLabelPosition=bottom;verticalAlign=top;html=1;" vertex="1" parent="1">
          <mxGeometry x="70" y="280" width="30" height="60" as="geometry" />
        </mxCell>
        <mxCell id="QqEz2ouQ6XEhS95nmp8b-14" value="" style="shape=flexArrow;endArrow=classic;html=1;rounded=0;" edge="1" parent="1">
          <mxGeometry width="50" height="50" relative="1" as="geometry">
            <mxPoint x="85" y="490" as="sourcePoint" />
            <mxPoint x="85" y="360" as="targetPoint" />
            <Array as="points">
              <mxPoint x="85" y="410" />
            </Array>
          </mxGeometry>
        </mxCell>
        <mxCell id="QqEz2ouQ6XEhS95nmp8b-15" value="Просмотр фичей" style="ellipse;whiteSpace=wrap;html=1;" vertex="1" parent="1">
          <mxGeometry x="200" y="260" width="80" height="60" as="geometry" />
        </mxCell>
        <mxCell id="QqEz2ouQ6XEhS95nmp8b-16" value="Просмотр цен" style="ellipse;whiteSpace=wrap;html=1;" vertex="1" parent="1">
          <mxGeometry x="200" y="330" width="80" height="60" as="geometry" />
        </mxCell>
        <mxCell id="QqEz2ouQ6XEhS95nmp8b-17" value="Просмотр демо-версии" style="ellipse;whiteSpace=wrap;html=1;" vertex="1" parent="1">
          <mxGeometry x="200" y="400" width="80" height="60" as="geometry" />
        </mxCell>
        <mxCell id="QqEz2ouQ6XEhS95nmp8b-20" value="" style="endArrow=none;html=1;rounded=0;exitX=0.5;exitY=0.5;exitDx=0;exitDy=0;exitPerimeter=0;" edge="1" parent="1" source="QqEz2ouQ6XEhS95nmp8b-8" target="QqEz2ouQ6XEhS95nmp8b-15">
          <mxGeometry width="50" height="50" relative="1" as="geometry">
            <mxPoint x="390" y="430" as="sourcePoint" />
            <mxPoint x="440" y="380" as="targetPoint" />
          </mxGeometry>
        </mxCell>
        <mxCell id="QqEz2ouQ6XEhS95nmp8b-21" value="" style="endArrow=none;html=1;rounded=0;entryX=0;entryY=0.5;entryDx=0;entryDy=0;" edge="1" parent="1" source="QqEz2ouQ6XEhS95nmp8b-8" target="QqEz2ouQ6XEhS95nmp8b-16">
          <mxGeometry width="50" height="50" relative="1" as="geometry">
            <mxPoint x="390" y="430" as="sourcePoint" />
            <mxPoint x="440" y="380" as="targetPoint" />
          </mxGeometry>
        </mxCell>
        <mxCell id="QqEz2ouQ6XEhS95nmp8b-22" value="" style="endArrow=none;html=1;rounded=0;entryX=0;entryY=0.5;entryDx=0;entryDy=0;" edge="1" parent="1" source="QqEz2ouQ6XEhS95nmp8b-8" target="QqEz2ouQ6XEhS95nmp8b-17">
          <mxGeometry width="50" height="50" relative="1" as="geometry">
            <mxPoint x="390" y="430" as="sourcePoint" />
            <mxPoint x="440" y="380" as="targetPoint" />
          </mxGeometry>
        </mxCell>
        <mxCell id="QqEz2ouQ6XEhS95nmp8b-24" value="Добавить проект" style="ellipse;whiteSpace=wrap;html=1;" vertex="1" parent="1">
          <mxGeometry x="350" y="420" width="80" height="60" as="geometry" />
        </mxCell>
        <mxCell id="QqEz2ouQ6XEhS95nmp8b-25" value="Просмотр проектов" style="ellipse;whiteSpace=wrap;html=1;" vertex="1" parent="1">
          <mxGeometry x="350" y="490" width="80" height="60" as="geometry" />
        </mxCell>
        <mxCell id="QqEz2ouQ6XEhS95nmp8b-26" value="" style="endArrow=none;html=1;rounded=0;exitX=0.5;exitY=0.5;exitDx=0;exitDy=0;exitPerimeter=0;entryX=0;entryY=0.5;entryDx=0;entryDy=0;" edge="1" parent="1" source="QqEz2ouQ6XEhS95nmp8b-5" target="QqEz2ouQ6XEhS95nmp8b-24">
          <mxGeometry width="50" height="50" relative="1" as="geometry">
            <mxPoint x="390" y="430" as="sourcePoint" />
            <mxPoint x="440" y="380" as="targetPoint" />
          </mxGeometry>
        </mxCell>
        <mxCell id="QqEz2ouQ6XEhS95nmp8b-27" value="" style="endArrow=none;html=1;rounded=0;exitX=0.5;exitY=0.5;exitDx=0;exitDy=0;exitPerimeter=0;entryX=0;entryY=0.5;entryDx=0;entryDy=0;" edge="1" parent="1" source="QqEz2ouQ6XEhS95nmp8b-5" target="QqEz2ouQ6XEhS95nmp8b-25">
          <mxGeometry width="50" height="50" relative="1" as="geometry">
            <mxPoint x="390" y="430" as="sourcePoint" />
            <mxPoint x="440" y="380" as="targetPoint" />
          </mxGeometry>
        </mxCell>
      </root>
    </mxGraphModel>
  </diagram>
</mxfile>
